<?xml version="1.0" encoding="iso-8859-1"?>
<!-- Generator: Adobe Illustrator 19.0.0, SVG Export Plug-In . SVG Version: 6.00 Build 0)  -->
<svg version="1.1" id="Layer_1" xmlns="http://www.w3.org/2000/svg" xmlns:xlink="http://www.w3.org/1999/xlink" x="0px" y="0px"
	 viewBox="0 0 512 512" style="enable-background:new 0 0 512 512;" xml:space="preserve">
<g>
	<g>
		<path d="M384.91,50.693h-10.14c0.001-0.003,0.002,0,0.002-0.013c0-9.173-2.456-17.715-6.726-25.151
			C359.273,10.255,342.808,0,323.968,0H157.149c-54.31,0-98.851,44.183-98.851,98.491V492.99c0,10.498,8.511,19.01,19.01,19.01
			c10.499,0,19.01-8.511,19.01-19.01V98.491c0-33.346,27.486-60.472,60.832-60.472h124.586h42.234
			c7.048,0,12.784,5.613,12.784,12.661c0,0.012,0.001,0.01,0.002,0.013h-10.14c-34.242,0-61.741,28.099-61.741,62.341v18.768
			h182.495v-18.768C447.366,78.792,419.15,50.693,384.91,50.693z"/>
	</g>
</g>
<g>
	<g>
		<path d="M277.545,169.821c-10.499,0-19.01,8.511-19.01,19.01v31.683c0,10.499,8.511,19.01,19.01,19.01
			c10.498,0,19.01-8.511,19.01-19.01v-31.683C296.554,178.333,288.043,169.821,277.545,169.821z"/>
	</g>
</g>
<g>
	<g>
		<path d="M434.693,169.821c-10.499,0-19.01,8.511-19.01,19.01v31.683c0,10.499,8.511,19.01,19.01,19.01
			c10.498,0,19.01-8.511,19.01-19.01v-31.683C453.702,178.333,445.191,169.821,434.693,169.821z"/>
	</g>
</g>
<g>
	<g>
		<path d="M356.119,169.821c-10.498,0-19.01,8.511-19.01,19.01v31.683c0,10.499,8.511,19.01,19.01,19.01
			c10.499,0,19.01-8.511,19.01-19.01v-31.683C375.128,178.333,366.617,169.821,356.119,169.821z"/>
	</g>
</g>
<g>
	<g>
		<path d="M277.545,261.069c-10.499,0-19.01,8.511-19.01,19.01v31.683c0,10.499,8.511,19.01,19.01,19.01
			c10.498,0,19.01-8.511,19.01-19.01v-31.683C296.554,269.58,288.043,261.069,277.545,261.069z"/>
	</g>
</g>
<g>
	<g>
		<path d="M434.693,261.069c-10.499,0-19.01,8.511-19.01,19.01v31.683c0,10.499,8.511,19.01,19.01,19.01
			c10.498,0,19.01-8.511,19.01-19.01v-31.683C453.702,269.58,445.191,261.069,434.693,261.069z"/>
	</g>
</g>
<g>
	<g>
		<path d="M356.119,261.069c-10.498,0-19.01,8.511-19.01,19.01v31.683c0,10.499,8.511,19.01,19.01,19.01
			c10.499,0,19.01-8.511,19.01-19.01v-31.683C375.128,269.58,366.617,261.069,356.119,261.069z"/>
	</g>
</g>
<g>
</g>
<g>
</g>
<g>
</g>
<g>
</g>
<g>
</g>
<g>
</g>
<g>
</g>
<g>
</g>
<g>
</g>
<g>
</g>
<g>
</g>
<g>
</g>
<g>
</g>
<g>
</g>
<g>
</g>
</svg>
